<?xml version="1.0" standalone="no"?><!DOCTYPE svg PUBLIC "-//W3C//DTD SVG 1.1//EN" "http://www.w3.org/Graphics/SVG/1.1/DTD/svg11.dtd"><svg t="1517062106267" class="icon" style="" viewBox="0 0 1024 1024" version="1.1" xmlns="http://www.w3.org/2000/svg" p-id="11221" xmlns:xlink="http://www.w3.org/1999/xlink" width="200" height="200"><defs><style type="text/css"></style></defs><path d="M512 512m-512 0a512 512 0 1 0 1024 0 512 512 0 1 0-1024 0Z" fill="#75B600" p-id="11222"></path><path d="M752 964c5.6-3.2 10.4-5.6 16-8.8V68.8c-5.6-3.2-10.4-6.4-16-8.8v904zM488 1023.2c5.6 0 10.4 0 16 0.8V0c-5.6 0-10.4 0-16 0.8v1022.4zM224 935.2c5.6 3.2 10.4 7.2 16 10.4V78.4c-5.6 3.2-10.4 7.2-16 10.4v846.4z" fill="#FBD000" p-id="11223"></path><path d="M184 588a56 52 0 1 0 112 0 56 52 0 1 0-112 0Z" fill="#46600E" p-id="11224"></path><path d="M448 746.4a56 53.6 0 1 0 112 0 56 53.6 0 1 0-112 0Z" fill="#46600E" p-id="11225"></path><path d="M768 328m-56 0a56 56 0 1 0 112 0 56 56 0 1 0-112 0Z" fill="#46600E" p-id="11226"></path><path d="M32 824.8c-3.2 0-7.2-0.8-9.6-3.2-7.2-5.6-8-15.2-3.2-22.4l196-256.8c4.8-6.4 14.4-8 20.8-4l250.4 154.4 256-402.4c1.6-3.2 4.8-4.8 8-6.4l231.2-91.2c8-3.2 17.6 0.8 20.8 8.8 3.2 8-0.8 17.6-8.8 20.8L767.2 312 505.6 723.2c-4.8 7.2-14.4 9.6-21.6 4.8L232 573.6 44.8 818.4c-3.2 4-8 6.4-12.8 6.4z" fill="#46600E" p-id="11227"></path><path d="M237.6 556m-47.2 0a47.2 47.2 0 1 0 94.4 0 47.2 47.2 0 1 0-94.4 0Z" fill="#FFFFFF" p-id="11228"></path><path d="M240 616c-35.2 0-64-28.8-64-64s28.8-64 64-64 64 28.8 64 64-28.8 64-64 64z m0-96c-17.6 0-32 14.4-32 32s14.4 32 32 32 32-14.4 32-32-14.4-32-32-32z" fill="#46600E" p-id="11229"></path><path d="M500.8 714.4m-47.2 0a47.2 47.2 0 1 0 94.4 0 47.2 47.2 0 1 0-94.4 0Z" fill="#FFFFFF" p-id="11230"></path><path d="M504 776c-35.2 0-64-28.8-64-64s28.8-64 64-64 64 28.8 64 64-28.8 64-64 64z m0-96c-17.6 0-32 14.4-32 32s14.4 32 32 32 32-14.4 32-32-14.4-32-32-32z" fill="#46600E" p-id="11231"></path><path d="M764.8 299.2m-47.2 0a47.2 47.2 0 1 0 94.4 0 47.2 47.2 0 1 0-94.4 0Z" fill="#FFFFFF" p-id="11232"></path><path d="M768 360c-35.2 0-64-28.8-64-64s28.8-64 64-64 64 28.8 64 64-28.8 64-64 64z m0-96c-17.6 0-32 14.4-32 32s14.4 32 32 32 32-14.4 32-32-14.4-32-32-32z" fill="#46600E" p-id="11233"></path><path d="M328 216c-17.6 0-32-14.4-32-32s14.4-32 32-32 32 14.4 32 32-14.4 32-32 32z m0-48.8c-9.6 0-16.8 8-16.8 16.8 0 9.6 8 16.8 16.8 16.8 9.6 0 16.8-8 16.8-16.8 0-9.6-7.2-16.8-16.8-16.8zM648 824c-17.6 0-32-14.4-32-32s14.4-32 32-32 32 14.4 32 32-14.4 32-32 32z m0-48.8c-9.6 0-16.8 8-16.8 16.8 0 9.6 8 16.8 16.8 16.8 9.6 0 16.8-8 16.8-16.8 0-9.6-7.2-16.8-16.8-16.8zM112 488c-17.6 0-32-14.4-32-32s14.4-32 32-32 32 14.4 32 32-14.4 32-32 32z m0-48.8c-9.6 0-16.8 8-16.8 16.8 0 9.6 8 16.8 16.8 16.8 9.6 0 16.8-8 16.8-16.8 0-9.6-7.2-16.8-16.8-16.8zM903.2 520.8c0-3.2-3.2-6.4-8-7.2l-15.2-2.4c-4-0.8-8.8-4.8-8.8-8.8l-2.4-15.2c-0.8-4-4-8-7.2-8s-6.4 3.2-7.2 8l-2.4 15.2c-0.8 4-4.8 8.8-8.8 8.8l-15.2 2.4c-4 0.8-8 4-8 7.2s3.2 6.4 8 7.2l15.2 2.4c4 0.8 8.8 4.8 8.8 8.8l2.4 15.2c0.8 4 4 8 7.2 8s6.4-3.2 6.4-8l2.4-16.8c0.8-4 4.8-8 8.8-8.8l14.4-0.8c6.4-1.6 9.6-4 9.6-7.2zM673.6 236.8c0-3.2-3.2-6.4-8-7.2l-15.2-2.4c-4-0.8-8.8-4.8-8.8-8.8l-2.4-15.2c-0.8-4-4-8-7.2-8s-6.4 3.2-7.2 8l-2.4 15.2c-0.8 4-4.8 8.8-8.8 8.8l-15.2 2.4c-4 0.8-8 4-8 7.2s3.2 6.4 8 7.2l15.2 2.4c4 0.8 8.8 4.8 8.8 8.8l2.4 15.2c0.8 4 4 8 7.2 8s6.4-3.2 6.4-8l2.4-16.8c0.8-4 4.8-8 8.8-8.8l14.4-0.8c5.6-1.6 9.6-4 9.6-7.2zM378.4 836.8c0-3.2-3.2-6.4-8-7.2l-15.2-2.4c-4-0.8-8.8-4.8-8.8-8.8l-2.4-15.2c-0.8-4-4-8-7.2-8s-6.4 3.2-7.2 8l-2.4 15.2c-0.8 4-4.8 8.8-8.8 8.8l-15.2 2.4c-4 0.8-8 4-8 7.2s3.2 6.4 8 7.2l15.2 2.4c4 0.8 8.8 4.8 8.8 8.8l2.4 15.2c0.8 4 4 8 7.2 8s6.4-3.2 6.4-8l2.4-16.8c0.8-4 4.8-8 8.8-8.8l14.4-0.8c5.6-0.8 9.6-4 9.6-7.2zM415.2 472c0-3.2-3.2-6.4-8-7.2l-15.2-2.4c-4-0.8-8.8-4.8-8.8-8.8l-2.4-15.2c-0.8-4-4-8-7.2-8s-6.4 3.2-7.2 8l-2.4 15.2c-0.8 4-4.8 8.8-8.8 8.8l-15.2 2.4c-4 0.8-8 4-8 7.2s3.2 6.4 8 7.2l15.2 2.4c4 0.8 8.8 4.8 8.8 8.8l2.4 15.2c0.8 4 4 8 7.2 8s6.4-3.2 6.4-8L384 488c0.8-4 4.8-8 8.8-8.8l14.4-0.8c4.8 0 8-3.2 8-6.4z" fill="#FFFFFF" p-id="11234"></path></svg>