<?xml version="1.0" standalone="no"?><!DOCTYPE svg PUBLIC "-//W3C//DTD SVG 1.1//EN" "http://www.w3.org/Graphics/SVG/1.1/DTD/svg11.dtd"><svg t="1516978835395" class="icon" style="" viewBox="0 0 1024 1024" version="1.1" xmlns="http://www.w3.org/2000/svg" p-id="6130" xmlns:xlink="http://www.w3.org/1999/xlink" width="200" height="200"><defs><style type="text/css"></style></defs><path d="M14 8h195.6v930.6H14z" fill="#66BFBF" p-id="6131"></path><path d="M217.6 946.6H6V0h211.6v946.6zM22 930.6h179.6V16H22v914.6z" fill="" p-id="6132"></path><path d="M336.2 8h195.6v930.6H336.2z" fill="#66BFBF" p-id="6133"></path><path d="M539.8 946.6H328.2V0h211.6v946.6z m-195.6-16h179.6V16H344.2v914.6z" fill="" p-id="6134"></path><path d="M1008.4 893.7l-189.7 44.9-229-863.5 187.1-54.9z" fill="#66BFBF" p-id="6135"></path><path d="M813 948.2L580 69.6l202.5-59.4 235.8 889.4L813 948.2zM599.4 80.6l225 848.4 174.1-41.2L771.2 30.2 599.4 80.6z" fill="" p-id="6136"></path><path d="M48.6 118.4h126.6v33.2H48.6zM48.6 173.8h126.6V207H48.6zM370.7 118.4h126.6v33.2H370.7zM370.7 173.8h126.6V207H370.7z" fill="#F76B8A" p-id="6137"></path><path d="M769.1 130l-119.2 35.1-7.9-32.4 119.4-35.1z" fill="#F76B8A" p-id="6138"></path><path d="M785.7 190.6L665 225l-8-32.3 120.8-34.5z" fill="#F76B8A" p-id="6139"></path><path d="M14 1013.8h1001v0.2H14z" fill="#66BFBF" p-id="6140"></path><path d="M6 1005.8h1017v16.2H6z" fill="" p-id="6141"></path></svg>